<svg width="300" height="300" viewBox="0 0 300 300" xmlns="http://www.w3.org/2000/svg">
  <style>
    .line {
      stroke: #ffffff;
      stroke-width: 1;
      fill: none;
      opacity: 0.15;
    }
    .circle {
      fill: #ffffff;
      opacity: 0.12;
    }
    .square {
      fill: none;
      stroke: #ffffff;
      stroke-width: 1;
      opacity: 0.1;
    }
  </style>
  
  <!-- Horizontal lines -->
  <path class="line" d="M0,20 H300" />
  <path class="line" d="M0,60 H300" />
  <path class="line" d="M0,100 H300" />
  <path class="line" d="M0,140 H300" />
  <path class="line" d="M0,180 H300" />
  <path class="line" d="M0,220 H300" />
  <path class="line" d="M0,260 H300" />
  
  <!-- Vertical lines -->
  <path class="line" d="M20,0 V300" />
  <path class="line" d="M60,0 V300" />
  <path class="line" d="M100,0 V300" />
  <path class="line" d="M140,0 V300" />
  <path class="line" d="M180,0 V300" />
  <path class="line" d="M220,0 V300" />
  <path class="line" d="M260,0 V300" />
  
  <!-- Connector paths -->
  <path class="line" d="M20,60 C40,60 40,100 60,100" />
  <path class="line" d="M60,140 C80,140 80,180 100,180" />
  <path class="line" d="M140,220 C160,220 160,260 180,260" />
  <path class="line" d="M220,60 C200,60 200,20 180,20" />
  <path class="line" d="M100,140 C120,140 120,100 140,100" />
  <path class="line" d="M180,140 C200,140 200,180 220,180" />
  
  <!-- Diagonals -->
  <path class="line" d="M0,0 L40,40" />
  <path class="line" d="M120,120 L160,160" />
  <path class="line" d="M240,240 L280,280" />
  <path class="line" d="M300,0 L260,40" />
  <path class="line" d="M180,120 L140,160" />
  <path class="line" d="M60,240 L20,280" />
  
  <!-- Nodes -->
  <circle class="circle" cx="20" cy="20" r="3" />
  <circle class="circle" cx="60" cy="60" r="3" />
  <circle class="circle" cx="100" cy="100" r="3" />
  <circle class="circle" cx="140" cy="140" r="3" />
  <circle class="circle" cx="180" cy="180" r="3" />
  <circle class="circle" cx="220" cy="220" r="3" />
  <circle class="circle" cx="260" cy="260" r="3" />
  
  <circle class="circle" cx="20" cy="180" r="3" />
  <circle class="circle" cx="60" cy="140" r="3" />
  <circle class="circle" cx="100" cy="220" r="3" />
  <circle class="circle" cx="140" cy="100" r="3" />
  <circle class="circle" cx="180" cy="60" r="3" />
  <circle class="circle" cx="220" cy="140" r="3" />
  <circle class="circle" cx="260" cy="20" r="3" />
  
  <!-- Component outlines -->
  <rect class="square" x="40" y="140" width="40" height="20" />
  <rect class="square" x="200" y="80" width="30" height="40" />
  <rect class="square" x="120" y="220" width="50" height="20" />
  
  <!-- IC outline -->
  <rect class="square" x="120" y="40" width="60" height="30" />
  <line class="line" x1="130" y1="40" x2="130" y2="30" />
  <line class="line" x1="140" y1="40" x2="140" y2="30" />
  <line class="line" x1="150" y1="40" x2="150" y2="30" />
  <line class="line" x1="160" y1="40" x2="160" y2="30" />
  <line class="line" x1="170" y1="40" x2="170" y2="30" />
  
  <line class="line" x1="130" y1="70" x2="130" y2="80" />
  <line class="line" x1="140" y1="70" x2="140" y2="80" />
  <line class="line" x1="150" y1="70" x2="150" y2="80" />
  <line class="line" x1="160" y1="70" x2="160" y2="80" />
  <line class="line" x1="170" y1="70" x2="170" y2="80" />
  
  <!-- Capacitor symbols -->
  <line class="line" x1="60" y1="20" x2="70" y2="20" />
  <line class="line" x1="63" y1="15" x2="63" y2="25" />
  <line class="line" x1="67" y1="15" x2="67" y2="25" />
  
  <line class="line" x1="220" y1="260" x2="230" y2="260" />
  <line class="line" x1="223" y1="255" x2="223" y2="265" />
  <line class="line" x1="227" y1="255" x2="227" y2="265" />
  
  <!-- Resistor symbols -->
  <path class="line" d="M20,140 L25,136 L30,144 L35,136 L40,144 L45,136 L50,140" />
  <path class="line" d="M180,220 L185,216 L190,224 L195,216 L200,224 L205,216 L210,220" />
</svg> 