<?xml version="1.0" encoding="UTF-8" standalone="no"?>
<!-- Created with Inkscape (http://www.inkscape.org/) -->

<svg
   width="9.1882792mm"
   height="11.939872mm"
   viewBox="0 0 9.1882792 11.939872"
   version="1.1"
   id="svg1"
   xml:space="preserve"
   xmlns:inkscape="http://www.inkscape.org/namespaces/inkscape"
   xmlns:sodipodi="http://sodipodi.sourceforge.net/DTD/sodipodi-0.dtd"
   xmlns="http://www.w3.org/2000/svg"
   xmlns:svg="http://www.w3.org/2000/svg"><sodipodi:namedview
     id="namedview1"
     pagecolor="#ffffff"
     bordercolor="#000000"
     borderopacity="0.25"
     inkscape:showpageshadow="2"
     inkscape:pageopacity="0.0"
     inkscape:pagecheckerboard="0"
     inkscape:deskcolor="#d1d1d1"
     inkscape:document-units="mm"
     inkscape:zoom="1.3380612"
     inkscape:cx="459.24657"
     inkscape:cy="507.82432"
     inkscape:window-width="1920"
     inkscape:window-height="986"
     inkscape:window-x="-11"
     inkscape:window-y="-11"
     inkscape:window-maximized="1"
     inkscape:current-layer="layer1"
     inkscape:export-bgcolor="#ffffff00" /><defs
     id="defs1" /><g
     inkscape:label="Layer 1"
     inkscape:groupmode="layer"
     id="layer1"
     transform="translate(-74.1149,-153.34036)"><path
       style="fill:#000000;stroke-width:0.843999"
       d="m 74.134296,165.18493 c -0.0356,-0.13965 -0.0195,-0.46485 0.0263,-0.53395 0.025,-0.0378 2.07597,-0.0685 4.55763,-0.0685 4.82577,0 4.65933,-0.0186 4.54792,0.50839 -0.0376,0.17834 -9.08667,0.27163 -9.13188,0.0941 z m 1.17505,-1.38129 c -0.71855,-0.6151 -1.12372,-2.37525 -1.12102,-4.87 0.005,-4.01875 0.99196,-6.54481 2.05394,-5.25339 0.1515,0.18421 0.15903,0.18286 0.26329,-0.0472 0.20947,-0.46218 0.25702,-0.14544 0.25702,1.71185 0,1.50708 -0.0141,1.66817 -0.14612,1.66817 -0.09,0 -0.12554,-0.14656 -0.24236,-1.00089 -0.57268,-4.18787 -1.60921,0.40345 -1.17696,5.21327 0.17631,1.96188 0.78846,1.98644 0.78846,0.0317 0,-0.9254 -0.013,-1.0427 -0.13227,-1.19728 -0.38604,-0.50017 -0.15112,-1.05061 0.46662,-1.09334 0.68236,-0.0472 0.94084,0.40452 0.5937,1.03752 l -0.12228,0.22302 v 1.16092 c 0,1.36903 -0.0116,1.44268 -0.31265,1.97884 -0.35436,0.63117 -0.76374,0.7841 -1.16937,0.43686 z m 2.39568,-0.13408 c -0.11218,-0.25659 -0.0574,-0.6339 0.12229,-0.84185 l 0.10071,-0.11657 0.008,-3.90965 c 0.007,-3.56259 0.003,-3.91608 -0.0404,-3.98196 -0.0806,-0.12143 -0.35176,0.61016 -0.51881,1.39975 -0.20328,0.96074 -0.31413,1.14685 -0.36615,0.61471 -0.0243,-0.24982 0.12327,-2.89846 0.17271,-3.09719 0.0426,-0.1711 2.27126,-0.22869 2.34058,-0.0605 0.0505,0.12268 0.21425,2.79481 0.18977,3.09756 -0.047,0.57985 -0.171,0.4198 -0.3486,-0.44943 -0.20766,-1.01648 -0.46314,-1.69555 -0.55375,-1.47198 -0.12836,0.31663 -0.0361,7.88934 0.0972,7.98758 0.16699,0.12293 0.20946,0.72617 0.062,0.88133 -0.11046,0.11631 -1.21142,0.0713 -1.26523,-0.0518 z m 2.09398,-0.0618 c -0.10565,-0.41479 -0.0119,-0.83296 0.18672,-0.83296 0.18116,0 0.17035,0.25261 0.16874,-3.94337 -0.002,-4.01317 0.002,-3.93167 -0.17103,-4.18143 -0.15998,-0.23118 -0.19755,-0.7225 -0.0698,-0.91315 0.38175,-0.56981 1.13238,-0.0221 1.18013,0.86102 0.009,0.17883 0.0681,0.7827 0.12971,1.34194 0.0617,0.55923 0.14263,1.32179 0.17992,1.69462 0.0826,0.82563 0.12873,0.85127 0.20342,0.11294 0.45287,-4.47692 0.40055,-4.2417 0.93994,-4.22592 0.5359,0.0157 0.61886,0.22334 0.40248,1.00756 l -0.1155,0.41861 0.008,3.77169 0.008,3.77169 0.17253,0.0945 c 0.24874,0.13633 0.32466,0.5215 0.18078,0.91713 -0.0772,0.21228 -1.36544,0.26416 -1.46311,0.0589 -0.1367,-0.28722 -0.0457,-0.89982 0.13363,-0.89982 0.18397,0 0.18703,-0.0429 0.17825,-2.50003 l -0.008,-2.18845 -0.0648,0.43012 c -0.0356,0.23657 -0.0648,0.4805 -0.0648,0.54208 0,0.0616 -0.0266,0.32559 -0.0593,0.58669 -0.0327,0.26107 -0.13018,1.16099 -0.2167,1.99984 -0.19288,1.87021 -0.21254,2.02438 -0.27484,2.15528 -0.0945,0.19857 -0.18758,-0.0646 -0.25039,-0.708 -0.0322,-0.32999 -0.13185,-1.2863 -0.22142,-2.12513 -0.0896,-0.83885 -0.19611,-1.84292 -0.23675,-2.23127 -0.11093,-1.05961 -0.1218,-0.91193 -0.1218,1.65431 0,2.58488 -0.006,2.49753 0.17564,2.49753 0.10529,0 0.16519,0.40162 0.11494,0.77027 -0.0424,0.31052 -0.9467,0.36592 -1.02393,0.0627 z"
       id="path2"
       inkscape:export-filename="path2.png"
       inkscape:export-xdpi="100"
       inkscape:export-ydpi="100" /></g></svg>
